#!OML:ASF X:\für Bonn\!DataBase\2005_08_12_Daniel\c3d\Daniel.ASF
:FULLY-SPECIFIED
:DEGREES
1
root -3.52741 17.2304 -2.84875 313.97 -80.8145 -321.069
lowerback 16.4327 -3.05416 -3.49983
upperback -0.0356495 -5.13138 -3.33851
thorax -9.2811 -2.42117 -0.389042
lowerneck 3.7552 2.10628 -4.09248
upperneck 5.61184 2.5766 0.427112
head 1.04478 1.16523 0.801476
rclavicle 2.75068e-014 5.96354e-015
rhumerus 58.6254 1.93073 -99.4006
rradius 7.06085
rwrist 64.1824
rhand -17.758 8.32721
rfingers 7.12502
rthumb 8.50393 -21.4816
lclavicle 2.75068e-014 5.96354e-015
lhumerus 60.881 1.50575 96.8968
lradius 8.55303
lwrist -68.0592
lhand -13.8971 7.74161
lfingers 7.12502
lthumb 12.2283 37.3641
rfemur 3.44021 17.5727 15.9494
rtibia 27.1257
rfoot -39.7249 -22.1989
rtoes -10.3345
lfemur -7.8651 -17.7563 -23.5341
ltibia 32.7646
lfoot -23.8179 7.37017
ltoes -0.77225
2
root -3.52581 17.2273 -2.84874 313.555 -80.8062 -320.744
lowerback 16.5752 -3.03602 -3.51884
upperback -0.0199231 -5.12258 -3.36383
thorax -9.34551 -2.41566 -0.400071
lowerneck 3.83538 2.1055 -4.04919
upperneck 5.59254 2.57305 0.396141
head 1.02626 1.16395 0.783239
rclavicle 2.7892e-014 -3.97569e-016
rhumerus 58.4623 1.96435 -99.334
rradius 7.05304
rwrist 64.0851
rhand -17.8218 8.29095
rfingers 7.12502
rthumb 8.44232 -21.5203
lclavicle 2.7892e-014 -3.97569e-016
lhumerus 60.7685 1.5536 96.9683
lradius 8.61156
lwrist -68.0909
lhand -13.9243 7.67552
lfingers 7.12502
lthumb 12.2021 37.2996
rfemur 3.32307 16.7688 15.6461
rtibia 27.2736
rfoot -39.117 -21.7245
rtoes -10.5153
lfemur -7.80542 -17.5362 -23.5743
ltibia 32.7881
lfoot -23.7876 7.2029
ltoes -0.6799
3
root -3.52424 17.2215 -2.84799 313.171 -80.8132 -320.471
lowerback 16.7383 -3.02472 -3.5044
upperback 0.0121703 -5.11873 -3.40316
thorax -9.40775 -2.41484 -0.442971
lowerneck 3.86821 2.1066 -3.97882
upperneck 5.61222 2.57529 0.367344
head 1.02791 1.16551 0.762182
rclavicle 4.5444e-014 4.77083e-015
rhumerus 58.3009 2.00063 -99.3004
rradius 7.05924
rwrist 63.9848
rhand -17.8411 8.28411
rfingers 7.12502
rthumb 8.42365 -21.5279
lclavicle 4.5444e-014 4.77083e-015
lhumerus 60.6832 1.61897 96.9952
lradius 8.62235
lwrist -68.0732
lhand -13.9969 7.59049
lfingers 7.12502
lthumb 12.1321 37.2187
rfemur 3.17987 15.8129 15.3156
rtibia 27.4694
rfoot -38.3773 -21.1892
rtoes -10.8745
lfemur -7.77214 -17.1258 -23.5635
ltibia 32.862
lfoot -23.679 6.82578
ltoes -0.619781
4
root -3.52133 17.2123 -2.84718 312.949 -80.812 -320.367
lowerback 16.9253 -3.01303 -3.47991
upperback 0.0436309 -5.11106 -3.42028
thorax -9.48268 -2.41147 -0.467284
lowerneck 3.95262 2.10163 -3.94801
upperneck 5.58445 2.56603 0.325691
head 1.00622 1.16117 0.742649
rclavicle -2.73344e-014 -3.89618e-014
rhumerus 58.1355 2.01308 -99.2122
rradius 7.05515
rwrist 63.9068
rhand -17.9388 8.39678
rfingers 7.12502
rthumb 8.32941 -21.419
lclavicle -2.73344e-014 -3.89618e-014
lhumerus 60.5953 1.66448 97.0726
lradius 8.637
lwrist -67.9936
lhand -14.0385 7.47943
lfingers 7.12502
lthumb 12.092 37.11
rfemur 3.00469 14.8169 14.9854
rtibia 27.7318
rfoot -37.7192 -20.5548
rtoes -11.2313
lfemur -7.77616 -16.6552 -23.5284
ltibia 32.9867
lfoot -23.5617 6.41026
ltoes -0.572724
5
root -3.51821 17.2024 -2.84735 312.672 -80.8026 -320.212
lowerback 17.1337 -3.00453 -3.46834
upperback 0.0728543 -5.1135 -3.45206
thorax -9.5725 -2.41255 -0.496562
lowerneck 4.05043 2.10122 -3.89158
upperneck 5.54491 2.56298 0.28727
head 0.978757 1.16073 0.719537
rclavicle -8.57414e-015 -3.97569e-015
rhumerus 57.9794 2.04185 -99.1624
rradius 7.03434
rwrist 63.8616
rhand -18.0173 8.50882
rfingers 7.12502
rthumb 8.25362 -21.31
lclavicle -8.57414e-015 -3.97569e-015
lhumerus 60.5342 1.71028 97.1217
lradius 8.63377
lwrist -67.8899
lhand -14.0771 7.36632
lfingers 7.12502
lthumb 12.0547 36.9991
rfemur 2.80014 13.772 14.6316
rtibia 28.0546
rfoot -37.0465 -19.8563
rtoes -11.5042
lfemur -7.81763 -16.1714 -23.4906
ltibia 33.1657
lfoot -23.4451 5.93434
ltoes -0.524637
6
root -3.51454 17.1896 -2.84761 312.374 -80.7946 -320.06
lowerback 17.375 -2.99245 -3.46868
upperback 0.118893 -5.11371 -3.47305
thorax -9.66005 -2.41184 -0.50676
lowerneck 4.11743 2.11 -3.87928
upperneck 5.51156 2.57126 0.293466
head 0.957165 1.16557 0.718121
rclavicle 4.66989e-015 -2.38542e-015
rhumerus 57.8695 2.0569 -99.0791
rradius 7.01369
rwrist 63.842
rhand -18.1014 8.66707
rfingers 7.12502
rthumb 8.17245 -21.1549
lclavicle 4.66989e-015 -2.38542e-015
lhumerus 60.4998 1.76001 97.1863
lradius 8.61203
lwrist -67.8083
lhand -14.1267 7.2378
lfingers 7.12502
lthumb 12.007 36.8734
rfemur 2.58227 12.6971 14.276
rtibia 28.446
rfoot -36.3815 -19.1502
rtoes -11.7422
lfemur -7.85491 -15.7123 -23.4687
ltibia 33.3957
lfoot -23.3805 5.49124
ltoes -0.550995
7
root -3.50959 17.1751 -2.84694 312.152 -80.7951 -320.011
lowerback 17.6807 -2.98745 -3.4221
upperback 0.153419 -5.11979 -3.50675
thorax -9.80197 -2.41519 -0.55181
lowerneck 4.23608 2.10773 -3.81417
upperneck 5.46256 2.56519 0.250978
head 0.92362 1.16386 0.692006
rclavicle -3.95644e-014 -4.65156e-014
rhumerus 57.7763 2.07239 -99.0245
rradius 6.95043
rwrist 63.7626
rhand -18.1387 8.84077
rfingers 7.12502
rthumb 8.13645 -20.9826
lclavicle -3.95644e-014 -4.65156e-014
lhumerus 60.4273 1.81489 97.2238
lradius 8.6101
lwrist -67.7273
lhand -14.1493 7.13169
lfingers 7.12502
lthumb 11.9851 36.7686
rfemur 2.36664 11.6652 13.9518
rtibia 28.908
rfoot -35.7788 -18.461
rtoes -12.1004
lfemur -7.8928 -15.2617 -23.4307
ltibia 33.6759
lfoot -23.3203 5.02518
ltoes -0.473924
8
root -3.50359 17.1589 -2.84747 311.982 -80.7966 -320.002
lowerback 17.9892 -2.97707 -3.39138
upperback 0.201282 -5.1188 -3.51925
thorax -9.92692 -2.41418 -0.567152
lowerneck 4.27982 2.09904 -3.76284
upperneck 5.42118 2.55476 0.202656
head 0.904872 1.15993 0.667543
rclavicle 3.28748e-014 2.82274e-014
rhumerus 57.7328 2.08281 -98.9283
rradius 6.89785
rwrist 63.7361
rhand -18.1753 9.04054
rfingers 7.12502
rthumb 8.10115 -20.7842
lclavicle 3.28748e-014 2.82274e-014
lhumerus 60.3719 1.86811 97.2919
lradius 8.63513
lwrist -67.6704
lhand -14.192 6.97249
lfingers 7.12502
lthumb 11.944 36.6118
rfemur 2.08541 10.6455 13.634
rtibia 29.4568
rfoot -35.2422 -17.7374
rtoes -12.4664
lfemur -8.00026 -14.7827 -23.3785
ltibia 34.0279
lfoot -23.2614 4.58991
ltoes -0.545446
9
root -3.49742 17.1394 -2.84718 311.824 -80.8081 -320.022
lowerback 18.3111 -2.97251 -3.3472
upperback 0.258437 -5.12314 -3.53283
thorax -10.0501 -2.41658 -0.589412
lowerneck 4.32924 2.10118 -3.7128
upperneck 5.38926 2.55807 0.160791
head 0.887789 1.16263 0.645251
rclavicle 1.23635e-014 -9.54166e-015
rhumerus 57.6843 2.07898 -98.826
rradius 6.85806
rwrist 63.6494
rhand -18.1908 9.26104
rfingers 7.12502
rthumb 8.08623 -20.5643
lclavicle 1.23635e-014 -9.54166e-015
lhumerus 60.3022 1.93938 97.3441
lradius 8.68452
lwrist -67.6125
lhand -14.172 6.80885
lfingers 7.12502
lthumb 11.9633 36.447
rfemur 1.75479 9.42905 13.2583
rtibia 30.101
rfoot -34.5991 -16.8824
rtoes -12.8646
lfemur -8.12021 -14.3602 -23.3265
ltibia 34.4563
lfoot -23.2741 4.14867
ltoes -0.50436
10
root -3.48996 17.1148 -2.84753 311.747 -80.834 -320.161
lowerback 18.7042 -2.96968 -3.28203
upperback 0.318631 -5.1287 -3.54223
thorax -10.2111 -2.41957 -0.614983
lowerneck 4.37786 2.10031 -3.66082
upperneck 5.3452 2.5576 0.122585
head 0.867152 1.16383 0.623726
rclavicle -5.10059e-014 -2.46493e-014
rhumerus 57.6205 2.06966 -98.7259
rradius 6.81989
rwrist 63.5612
rhand -18.2509 9.46963
rfingers 7.12502
rthumb 8.02821 -20.3579
lclavicle -5.10059e-014 -2.46493e-014
lhumerus 60.2446 2.00326 97.3958
lradius 8.7119
lwrist -67.5845
lhand -14.1392 6.65409
lfingers 7.12502
lthumb 11.9949 36.2904
rfemur 1.40632 8.14675 12.8913
rtibia 30.8473
rfoot -33.9878 -15.8954
rtoes -13.1462
lfemur -8.26807 -13.8947 -23.2465
ltibia 34.9776
lfoot -23.2909 3.68463
ltoes -0.61951
11
root -3.48192 17.0867 -2.84731 311.574 -80.8566 -320.224
lowerback 19.1212 -2.95878 -3.22229
upperback 0.385399 -5.12572 -3.55214
thorax -10.3775 -2.41833 -0.639417
lowerneck 4.46539 2.09354 -3.6163
upperneck 5.27335 2.54739 0.071248
head 0.831834 1.16034 0.598735
rclavicle -1.24481e-014 3.02153e-014
rhumerus 57.5507 2.02499 -98.593
rradius 6.78621
rwrist 63.4995
rhand -18.3051 9.63648
rfingers 7.12502
rthumb 7.97588 -20.193
lclavicle -1.24481e-014 3.02153e-014
lhumerus 60.203 2.05747 97.4623
lradius 8.72504
lwrist -67.5225
lhand -14.0545 6.46325
lfingers 7.12502
lthumb 12.0765 36.0948
rfemur 1.03762 6.94441 12.5299
rtibia 31.6914
rfoot -33.4824 -14.9625
rtoes -13.5491
lfemur -8.43945 -13.439 -23.1857
ltibia 35.5939
lfoot -23.3524 3.21764
ltoes -0.623776
12
root -3.47366 17.0536 -2.84764 311.552 -80.8755 -320.458
lowerback 19.5566 -2.9622 -3.1599
upperback 0.462443 -5.14034 -3.55436
thorax -10.5415 -2.42544 -0.651502
lowerneck 4.54758 2.0994 -3.55915
upperneck 5.19885 2.55485 0.0208894
head 0.796456 1.16602 0.571913
rclavicle -1.1368e-015 1.59028e-015
rhumerus 57.4729 2.01445 -98.4779
rradius 6.77026
rwrist 63.3815
rhand -18.3714 9.83232
rfingers 7.12502
rthumb 7.91184 -19.9996
lclavicle -1.1368e-015 1.59028e-015
lhumerus 60.2014 2.12556 97.5227
lradius 8.68049
lwrist -67.4592
lhand -14.0007 6.35825
lfingers 7.12502
lthumb 12.1284 35.9867
rfemur 0.663429 5.82564 12.2112
rtibia 32.6219
rfoot -33.0959 -14.0342
rtoes -13.8414
lfemur -8.65273 -13.0235 -23.1156
ltibia 36.3132
lfoot -23.469 2.80025
ltoes -0.740156
